<?xml version="1.0" encoding="UTF-8"?>
<svg xmlns="http://www.w3.org/2000/svg" xmlns:xlink="http://www.w3.org/1999/xlink" width="367.05pt" height="60.48pt" viewBox="0 0 367.05 60.48" version="1.1">
<defs>
<clipPath id="clip1">
  <path d="M 24 0 L 32 0 L 32 60.480469 L 24 60.480469 Z M 24 0 "/>
</clipPath>
<clipPath id="clip2">
  <path d="M 339 11 L 367.050781 11 L 367.050781 49 L 339 49 Z M 339 11 "/>
</clipPath>
</defs>
<g id="surface1">
<path style=" stroke:none;fill-rule:nonzero;fill:rgb(53.69873%,78.399658%,91.398621%);fill-opacity:1;" d="M 4 48.808594 C 1.792969 48.808594 0 47.019531 0 44.808594 L 0 15.707031 C 0 13.5 1.792969 11.707031 4 11.707031 C 6.207031 11.707031 8 13.5 8 15.707031 L 8 44.808594 C 8 47.019531 6.207031 48.808594 4 48.808594 "/>
<path style=" stroke:none;fill-rule:nonzero;fill:rgb(5.499268%,68.199158%,86.698914%);fill-opacity:1;" d="M 52 48.808594 C 49.789063 48.808594 48 47.019531 48 44.808594 L 48 15.730469 C 48 13.523438 49.789063 11.730469 52 11.730469 C 54.210938 11.730469 56 13.523438 56 15.730469 L 56 44.808594 C 56 47.019531 54.210938 48.808594 52 48.808594 "/>
<g clip-path="url(#clip1)" clip-rule="nonzero">
<path style=" stroke:none;fill-rule:nonzero;fill:rgb(17.999268%,50.19989%,76.499939%);fill-opacity:1;" d="M 28 60.480469 C 25.789063 60.480469 24 58.6875 24 56.480469 L 24 4.0625 C 24 1.851563 25.789063 0.0625 28 0.0625 C 30.210938 0.0625 32 1.851563 32 4.0625 L 32 56.480469 C 32 58.6875 30.210938 60.480469 28 60.480469 "/>
</g>
<path style=" stroke:none;fill-rule:nonzero;fill:rgb(50.19989%,50.999451%,52.198792%);fill-opacity:1;" d="M 152.988281 14.324219 C 152.988281 12.882813 154.15625 11.644531 155.601563 11.644531 C 157.113281 11.644531 158.285156 12.8125 158.285156 14.324219 L 158.285156 45.652344 C 158.285156 47.164063 157.183594 48.332031 155.671875 48.332031 C 154.15625 48.332031 152.988281 47.164063 152.988281 45.652344 "/>
<path style=" stroke:none;fill-rule:nonzero;fill:rgb(50.19989%,50.999451%,52.198792%);fill-opacity:1;" d="M 203.058594 45.652344 C 203.058594 47.164063 201.890625 48.332031 200.445313 48.332031 C 198.933594 48.332031 197.761719 47.164063 197.761719 45.652344 L 197.761719 41.835938 C 194.871094 46.101563 190.675781 48.746094 184.140625 48.746094 C 175.613281 48.746094 167.148438 42.007813 167.148438 30.3125 L 167.148438 30.171875 C 167.148438 18.546875 175.613281 11.667969 184.140625 11.667969 C 190.746094 11.667969 195.007813 14.246094 197.761719 18.234375 L 197.761719 2.683594 C 197.761719 1.167969 198.859375 -0.00390625 200.378906 -0.00390625 C 201.890625 -0.00390625 203.058594 1.167969 203.058594 2.683594 Z M 172.585938 30.105469 L 172.585938 30.242188 C 172.585938 38.632813 178.433594 44 185.105469 44 C 191.710938 44 197.96875 38.429688 197.96875 30.242188 L 197.96875 30.105469 C 197.96875 21.917969 191.710938 16.414063 185.105469 16.414063 C 178.226563 16.414063 172.585938 21.507813 172.585938 30.105469 "/>
<g clip-path="url(#clip2)" clip-rule="nonzero">
<path style=" stroke:none;fill-rule:nonzero;fill:rgb(50.19989%,50.999451%,52.198792%);fill-opacity:1;" d="M 340.699219 44.207031 C 340.21875 43.863281 339.738281 43.175781 339.738281 42.28125 C 339.738281 41.042969 340.769531 40.007813 342.078125 40.007813 C 342.558594 40.007813 343.039063 40.148438 343.386719 40.425781 C 347.03125 42.898438 350.8125 44.207031 354.664063 44.207031 C 358.929688 44.207031 362.027344 42.007813 362.027344 38.566406 L 362.027344 38.429688 C 362.027344 34.851563 357.832031 33.476563 353.152344 32.167969 C 347.582031 30.585938 341.390625 28.660156 341.390625 22.125 L 341.390625 21.988281 C 341.390625 15.863281 346.480469 11.804688 353.496094 11.804688 C 357.28125 11.804688 361.410156 12.976563 364.847656 14.832031 C 365.535156 15.246094 366.152344 16.003906 366.152344 17.035156 C 366.152344 18.273438 365.121094 19.304688 363.816406 19.304688 C 363.332031 19.304688 362.921875 19.167969 362.644531 19.03125 C 359.621094 17.308594 356.386719 16.277344 353.359375 16.277344 C 349.164063 16.277344 346.480469 18.480469 346.480469 21.4375 L 346.480469 21.574219 C 346.480469 24.945313 350.882813 26.25 355.628906 27.695313 C 361.132813 29.347656 367.046875 31.480469 367.046875 37.878906 L 367.046875 38.015625 C 367.046875 44.757813 361.476563 48.679688 354.390625 48.679688 C 349.714844 48.679688 344.554688 46.957031 340.699219 44.207031 "/>
</g>
<path style=" stroke:none;fill-rule:nonzero;fill:rgb(50.19989%,50.999451%,52.198792%);fill-opacity:1;" d="M 332.101563 26.640625 C 332.101563 18.636719 325.082031 11.667969 316.621094 11.667969 C 308.0625 11.667969 301.121094 18.609375 301.121094 27.167969 L 301.121094 45.496094 C 301.121094 47.078125 302.34375 48.300781 303.925781 48.300781 C 305.507813 48.300781 306.65625 47.078125 306.65625 45.496094 L 306.652344 37.265625 L 306.652344 26.636719 C 306.652344 21.140625 311.109375 16.679688 316.609375 16.679688 C 322.109375 16.679688 326.566406 21.140625 326.566406 26.636719 L 326.566406 45.496094 C 326.566406 47.078125 327.789063 48.300781 329.296875 48.300781 C 330.878906 48.300781 332.101563 47.078125 332.101563 45.496094 C 332.101563 45.496094 332.152344 28.363281 332.101563 26.640625 "/>
<path style=" stroke:none;fill-rule:nonzero;fill:rgb(50.19989%,50.999451%,52.198792%);fill-opacity:1;" d="M 274.421875 43.992188 C 269.605469 43.992188 265.808594 41.9375 265.808594 37.464844 L 265.808594 37.328125 C 265.808594 32.855469 269.523438 29.964844 276.195313 29.964844 C 280.527344 29.964844 286.644531 31.355469 286.648438 31.480469 L 286.648438 31.488281 C 286.648438 38.007813 280.558594 43.992188 274.421875 43.992188 M 291.671875 26.253906 L 291.660156 26.253906 C 291.179688 18.617188 284.382813 12.140625 276.226563 12.140625 L 273.855469 12.140625 C 272.46875 12.140625 271.347656 13.261719 271.347656 14.648438 C 271.347656 16.03125 272.46875 17.152344 273.855469 17.152344 L 276.214844 17.152344 C 281.714844 17.152344 286.582031 21.613281 286.582031 27.109375 L 286.582031 27.558594 C 283.417969 26.664063 280.183594 26.046875 275.644531 26.046875 C 266.632813 26.046875 260.441406 30.035156 260.441406 37.535156 L 260.441406 37.671875 C 260.441406 44.964844 266.871094 48.746094 273.472656 48.746094 C 279.472656 48.746094 284.199219 45.671875 286.648438 41.714844 L 286.648438 45.789063 C 286.648438 47.175781 287.773438 48.300781 289.160156 48.300781 C 290.546875 48.300781 291.671875 47.175781 291.671875 45.789063 "/>
<path style=" stroke:none;fill-rule:nonzero;fill:rgb(50.19989%,50.999451%,52.198792%);fill-opacity:1;" d="M 259.441406 14.640625 C 259.441406 13.253906 258.316406 12.132813 256.933594 12.132813 L 255.21875 12.132813 C 246.660156 12.132813 239.71875 19.074219 239.71875 27.632813 L 239.71875 45.496094 C 239.71875 47.078125 240.941406 48.300781 242.523438 48.300781 C 244.105469 48.300781 245.253906 47.078125 245.253906 45.496094 L 245.25 37.265625 L 245.25 27.101563 C 245.25 21.605469 249.710938 17.144531 255.207031 17.144531 C 255.210938 17.144531 255.214844 17.144531 255.222656 17.144531 L 255.222656 17.148438 L 256.933594 17.148438 C 258.316406 17.148438 259.441406 16.027344 259.441406 14.640625 "/>
<path style=" stroke:none;fill-rule:nonzero;fill:rgb(50.19989%,50.999451%,52.198792%);fill-opacity:1;" d="M 230.929688 14.511719 C 230.929688 13.21875 229.878906 12.171875 228.589844 12.171875 L 219.300781 12.171875 L 219.300781 2.835938 C 219.300781 1.371094 218.105469 0.0195313 216.640625 0.0078125 C 215.117188 -0.00390625 214.003906 1.238281 214.003906 2.691406 L 214.003906 38.566406 C 214.003906 45.789063 218.335938 48.609375 224.046875 48.609375 C 226.113281 48.609375 227.761719 48.265625 229.273438 47.648438 C 230.171875 47.300781 230.789063 46.546875 230.789063 45.582031 C 230.789063 44.34375 229.757813 43.3125 228.519531 43.3125 C 228.105469 43.3125 227.140625 43.792969 225.285156 43.792969 C 221.710938 43.792969 219.300781 42.210938 219.300781 37.878906 L 219.300781 16.851563 L 228.589844 16.851563 C 229.878906 16.851563 230.929688 15.804688 230.929688 14.511719 "/>
<path style=" stroke:none;fill-rule:nonzero;fill:rgb(50.19989%,50.999451%,52.198792%);fill-opacity:1;" d="M 127.183594 11.644531 C 122.109375 11.644531 117.636719 14.191406 114.960938 18.078125 C 112.304688 14.210938 107.886719 11.667969 102.832031 11.667969 C 94.640625 11.667969 88 18.308594 88 26.5 L 88 45.652344 C 88 47.164063 89.167969 48.332031 90.679688 48.332031 C 92.195313 48.332031 93.296875 47.164063 93.296875 45.652344 L 93.292969 25.992188 C 93.292969 20.730469 97.558594 16.464844 102.824219 16.464844 C 108.085938 16.464844 112.351563 20.730469 112.351563 25.992188 L 112.347656 43.457031 L 112.351563 43.457031 C 112.351563 43.460938 112.347656 43.460938 112.347656 43.464844 C 112.347656 44.929688 113.535156 46.113281 114.996094 46.113281 C 116.460938 46.113281 117.648438 44.929688 117.648438 43.464844 L 117.640625 25.96875 C 117.640625 20.707031 121.910156 16.441406 127.171875 16.441406 C 132.433594 16.441406 136.703125 20.707031 136.703125 25.96875 L 136.703125 45.625 C 136.703125 47.140625 137.871094 48.308594 139.3125 48.308594 C 140.828125 48.308594 141.996094 47.140625 141.996094 45.625 L 142.015625 26.5 C 142.015625 18.054688 135.035156 11.644531 127.183594 11.644531 "/>
</g>
</svg>
