<svg width="800" height="600" viewBox="0 0 800 600" fill="none" xmlns="http://www.w3.org/2000/svg">
<path opacity="0.5" d="M721.207 119.5H678.793L699.293 140L679.793 159.5H679.5V160.207L699.293 180L679.793 199.5H679.5V200.207L699.293 220L679.793 239.5H679.5V240.207L699.293 260L679.793 279.5H678.793L699.293 300L679.793 319.5H679.5V320.207L699.293 340L679.793 359.5H679.5V360.207L699.293 380L679.793 399.5H679.5V400.207L699.293 420L679.793 439.5H679.5V440.207L699.293 460L679.793 479.5H679.5V480.207L699.293 500L679.646 519.646L680.354 520.354L700 500.707L719.646 520.354L720.354 519.646L700.707 500L720.5 480.207V479.5H720.207L700.707 460L720.5 440.207V439.5H720.207L700.707 420L721.207 399.5H720.207L700.707 380L720.5 360.207V359.5H720.207L700.707 340L720.5 320.207V319.5H720.207L700.707 300L720.5 280.207V279.5H720.207L700.707 260L720.5 240.207V239.5H720.207L700.707 220L720.5 200.207V199.5H720.207L700.707 180L720.5 160.207V159.5H720.207L700.707 140L721.207 119.5ZM681.207 120.5H718.793L700 139.293L681.207 120.5ZM700 499.293L681.207 480.5H718.793L700 499.293ZM718.793 479.5H681.207L700 460.707L718.793 479.5ZM700 459.293L681.207 440.5H718.793L700 459.293ZM718.793 439.5H681.207L700 420.707L718.793 439.5ZM700 419.293L681.207 400.5H718.793L700 419.293ZM718.793 399.5H681.207L700 380.707L718.793 399.5ZM700 379.293L681.207 360.5H718.793L700 379.293ZM718.793 359.5H681.207L700 340.707L718.793 359.5ZM700 339.293L681.207 320.5H718.793L700 339.293ZM718.793 319.5H681.207L700 300.707L718.793 319.5ZM700 299.293L681.207 280.5H718.793L700 299.293ZM718.793 279.5H681.207L700 260.707L718.793 279.5ZM700 259.293L681.207 240.5H718.793L700 259.293ZM718.793 239.5H681.207L700 220.707L718.793 239.5ZM700 219.293L681.207 200.5H718.793L700 219.293ZM718.793 199.5H681.207L700 180.707L718.793 199.5ZM700 179.293L681.207 160.5H718.793L700 179.293ZM718.793 159.5H681.207L700 140.707L718.793 159.5Z" fill="#BFCCE0"/>
<path opacity="0.5" d="M799.646 80.3535L799.826 79.1187L780.707 60L799.742 40.9648L799.646 39.6465L780 59.293L760.5 39.793V39.5H759.793L740 59.293L720.5 39.793V38.793L720 39.293L700.707 20L720.354 0.353516L720 0H719.293L700 19.293L680.707 0H680L679.646 0.353516L699.293 20L679.646 39.6465L660 59.293L640.5 39.793V39.5H639.793L620 59.293L600.5 39.793V39.5H599.793L580 59.293L559.964 39.257L559.5 39.5676V80.5H560.207L580 60.707L599.793 80.5H600.5V80.207L620 60.707L639.793 80.5H640.5V80.207L660 60.707L679.5 80.207V81.207L700 60.707L720.5 81.207V80.207L740 60.707L759.793 80.5H760.5V80.207L780 60.707L799.646 80.3535ZM560.5 78.793V41.207L579.293 60L560.5 78.793ZM599.5 78.793L580.707 60L599.5 41.207V78.793ZM600.5 78.793V41.207L619.293 60L600.5 78.793ZM639.5 78.793L620.707 60L639.5 41.207V78.793ZM640.5 78.793V41.207L659.293 60L640.5 78.793ZM660.707 60L679.5 41.207V78.793L660.707 60ZM680.5 78.793V41.207L699.293 60L680.5 78.793ZM680.812 40.1048L680.643 40.0645L700 20.707L719.293 40L700 59.293L680.812 40.1048ZM719.5 78.793L700.707 60L719.5 41.207V78.793ZM720.5 78.793V41.207L739.293 60L720.5 78.793ZM759.5 78.793L740.707 60L759.5 41.207V78.793ZM760.5 78.793V41.207L779.293 60L760.5 78.793Z" fill="#BFCCE0"/>
<path d="M184 479C171.318 479 161 468.683 161 456V144C161 131.318 171.318 121 184 121H616C628.683 121 639 131.318 639 144V456C639 468.683 628.683 479 616 479H184Z" fill="white"/>
<path d="M616 122C628.131 122 638 131.869 638 144V456C638 468.131 628.131 478 616 478H184C171.869 478 162 468.131 162 456V144C162 131.869 171.869 122 184 122H616ZM616 120H184C170.745 120 160 130.745 160 144V456C160 469.255 170.745 480 184 480H616C629.255 480 640 469.255 640 456V144C640 130.745 629.255 120 616 120Z" fill="#525D6D"/>
<path d="M618.993 401.905H420.872C414.818 401.905 409.865 397.186 409.865 391.419V362.581C409.865 356.814 414.818 352.095 420.872 352.095H618.993C625.047 352.095 630 356.814 630 362.581V391.419C630 397.186 625.047 401.905 618.993 401.905Z" fill="#D5DEE9"/>
<path d="M618.993 392.905H420.872C414.818 392.905 409.865 388.186 409.865 382.419V353.581C409.865 347.814 414.818 343.095 420.872 343.095H618.993C625.047 343.095 630 347.814 630 353.581V382.419C630 388.186 625.047 392.905 618.993 392.905Z" fill="#F3F7FC"/>
<path d="M614 191H186C177.2 191 170 183.8 170 175V147C170 138.2 177.2 131 186 131H614C622.8 131 630 138.2 630 147V175C630 183.8 622.8 191 614 191Z" fill="#231F20"/>
<path d="M720.5 520.5H679.5V79.5H720.5V520.5ZM680.5 519.5H719.5V80.5H680.5V519.5Z" fill="#BFCCE0"/>
<path d="M756 599H644C635.2 599 628 591.8 628 583V561C628 552.2 635.2 545 644 545H756C764.8 545 772 552.2 772 561V583C772 591.8 764.8 599 756 599Z" fill="#D5DEE9"/>
<path d="M755 506.5H727V518.5H755V506.5Z" fill="#D5DEE9"/>
<path d="M755 493.5H727V505.5H755V493.5Z" fill="#D5DEE9"/>
<path d="M755 480.5H727V492.5H755V480.5Z" fill="#D5DEE9"/>
<path d="M755 467.5H727V479.5H755V467.5Z" fill="#D5DEE9"/>
<path d="M720.5 41H679.5V0H720.5V41ZM680.5 40H719.5V1H680.5V40Z" fill="#BFCCE0"/>
<path d="M526 86H514C511.791 86 510 84.2091 510 82V80H530V82C530 84.2091 528.209 86 526 86Z" fill="#231F20"/>
<path d="M639.274 590H647.015L652.61 578H644.869L639.274 590Z" fill="white"/>
<path d="M653.035 590H660.776L666.372 578H658.631L653.035 590Z" fill="white"/>
<path d="M666.796 590H674.537L680.133 578H672.392L666.796 590Z" fill="white"/>
<path d="M680.558 590H688.298L693.894 578H686.153L680.558 590Z" fill="white"/>
<path d="M694.319 590H702.06L707.656 578H699.915L694.319 590Z" fill="white"/>
<path d="M708.08 590H715.821L721.417 578H713.676L708.08 590Z" fill="white"/>
<path d="M721.842 590H729.582L735.178 578H727.437L721.842 590Z" fill="white"/>
<path d="M735.603 590H743.344L748.939 578H741.199L735.603 590Z" fill="white"/>
<path d="M749.364 590H757.105L762.701 578H754.96L749.364 590Z" fill="white"/>
<path d="M371.667 471H188.333C178.25 471 170 462.742 170 452.649V295.351C170 285.258 178.25 277 188.333 277H371.667C381.75 277 390 285.258 390 295.351V452.649C390 462.742 381.75 471 371.667 471Z" fill="#F3F7FC"/>
<path d="M345.18 346.042C350.966 346.042 355.656 341.352 355.656 335.566C355.656 329.78 350.966 325.09 345.18 325.09C339.394 325.09 334.704 329.78 334.704 335.566C334.704 341.352 339.394 346.042 345.18 346.042Z" fill="white"/>
<path d="M363.71 419.483L334.882 379.844C333.851 378.426 331.628 378.426 330.597 379.844L301.769 419.483C300.59 421.104 301.824 423.304 303.911 423.304H361.567C363.655 423.304 364.889 421.104 363.71 419.483Z" fill="#E2EAF4"/>
<path d="M327.838 414.986L266.578 328.714C264.387 325.628 259.663 325.628 257.472 328.714L196.213 414.986C193.707 418.515 196.329 423.304 200.766 423.304H323.285C327.721 423.304 330.343 418.515 327.838 414.986Z" fill="#D5DEE9"/>
<path d="M400 246.647C409.746 246.647 417.647 238.746 417.647 229C417.647 219.254 409.746 211.353 400 211.353C390.254 211.353 382.353 219.254 382.353 229C382.353 238.746 390.254 246.647 400 246.647Z" fill="#D5DEE9"/>
<path d="M242.353 232.529H202.354C201.06 232.529 200.001 231.471 200.001 230.176V227.824C200.001 226.529 201.06 225.471 202.354 225.471H242.353C243.648 225.471 244.706 226.529 244.706 227.824V230.176C244.706 231.471 243.648 232.529 242.353 232.529Z" fill="#E2EAF4"/>
<path d="M295.294 232.529H267.059C265.765 232.529 264.706 231.471 264.706 230.176V227.824C264.706 226.529 265.765 225.471 267.059 225.471H295.294C296.589 225.471 297.647 226.529 297.647 227.824V230.176C297.647 231.471 296.589 232.529 295.294 232.529Z" fill="#E2EAF4"/>
<path d="M351.765 232.529H321.177C319.883 232.529 318.824 231.471 318.824 230.176V227.824C318.824 226.529 319.883 225.471 321.177 225.471H351.765C353.059 225.471 354.118 226.529 354.118 227.824V230.176C354.118 231.471 353.059 232.529 351.765 232.529Z" fill="#E2EAF4"/>
<path d="M488.235 232.529H448.235C446.941 232.529 445.882 231.471 445.882 230.176V227.824C445.882 226.529 446.941 225.471 448.235 225.471H488.235C489.529 225.471 490.588 226.529 490.588 227.824V230.176C490.588 231.471 489.529 232.529 488.235 232.529Z" fill="#E2EAF4"/>
<path d="M541.176 232.529H512.941C511.647 232.529 510.588 231.471 510.588 230.176V227.824C510.588 226.529 511.647 225.471 512.941 225.471H541.176C542.47 225.471 543.529 226.529 543.529 227.824V230.176C543.529 231.471 542.47 232.529 541.176 232.529Z" fill="#E2EAF4"/>
<path d="M597.646 232.529H567.058C565.764 232.529 564.705 231.471 564.705 230.176V227.824C564.705 226.529 565.764 225.471 567.058 225.471H597.646C598.941 225.471 599.999 226.529 599.999 227.824V230.176C599.999 231.471 598.941 232.529 597.646 232.529Z" fill="#E2EAF4"/>
<path opacity="0.45" d="M618.993 326.811H420.872C414.818 326.811 409.865 322.092 409.865 316.324V287.486C409.865 281.719 414.818 277 420.872 277H618.993C625.047 277 630 281.719 630 287.486V316.324C630 322.092 625.047 326.811 618.993 326.811Z" fill="#F3F7FB"/>
<path d="M438.74 313.703C445.264 313.703 450.552 308.421 450.552 301.905C450.552 295.39 445.264 290.108 438.74 290.108C432.216 290.108 426.927 295.39 426.927 301.905C426.927 308.421 432.216 313.703 438.74 313.703Z" fill="#D5DEE9"/>
<path opacity="0.75" d="M545.052 297.973H471.552C470.109 297.973 468.927 296.793 468.927 295.351V294.041C468.927 292.599 470.109 291.419 471.552 291.419H545.052C546.496 291.419 547.677 292.599 547.677 294.041V295.351C547.677 296.793 546.496 297.973 545.052 297.973Z" fill="#D5DEE9"/>
<path opacity="0.5" d="M513.552 312.392H471.552C470.109 312.392 468.927 311.212 468.927 309.77V308.459C468.927 307.018 470.109 305.838 471.552 305.838H513.552C514.996 305.838 516.177 307.018 516.177 308.459V309.77C516.177 311.212 514.996 312.392 513.552 312.392Z" fill="#D5DEE9"/>
<path d="M438.74 379.797C445.264 379.797 450.552 374.515 450.552 368C450.552 361.485 445.264 356.203 438.74 356.203C432.216 356.203 426.927 361.485 426.927 368C426.927 374.515 432.216 379.797 438.74 379.797Z" fill="#D5DEE9"/>
<path d="M524.052 364.068H471.552C470.109 364.068 468.927 362.888 468.927 361.446V360.135C468.927 358.693 470.109 357.513 471.552 357.513H524.052C525.496 357.513 526.677 358.693 526.677 360.135V361.446C526.677 362.888 525.496 364.068 524.052 364.068Z" fill="#D5DEE9"/>
<path opacity="0.5" d="M537.177 378.487H471.552C470.109 378.487 468.927 377.307 468.927 375.865V374.554C468.927 373.112 470.109 371.932 471.552 371.932H537.177C538.621 371.932 539.802 373.112 539.802 374.554V375.865C539.802 377.307 538.621 378.487 537.177 378.487Z" fill="#D5DEE9"/>
<path opacity="0.45" d="M618.993 471H420.872C414.818 471 409.865 466.281 409.865 460.513V431.676C409.865 425.908 414.818 421.189 420.872 421.189H618.993C625.047 421.189 630 425.908 630 431.676V460.513C630 466.281 625.047 471 618.993 471Z" fill="#F3F7FB"/>
<path d="M438.74 457.892C445.264 457.892 450.552 452.61 450.552 446.095C450.552 439.579 445.264 434.297 438.74 434.297C432.216 434.297 426.927 439.579 426.927 446.095C426.927 452.61 432.216 457.892 438.74 457.892Z" fill="#D5DEE9"/>
<path opacity="0.5" d="M545.052 450.027H471.552C470.109 450.027 468.927 451.207 468.927 452.649V453.959C468.927 455.401 470.109 456.581 471.552 456.581H545.052C546.496 456.581 547.677 455.401 547.677 453.959V452.649C547.677 451.207 546.496 450.027 545.052 450.027Z" fill="#D5DEE9"/>
<path d="M513.552 435.608H471.552C470.109 435.608 468.927 436.788 468.927 438.23V439.541C468.927 440.982 470.109 442.162 471.552 442.162H513.552C514.996 442.162 516.177 440.982 516.177 439.541V438.23C516.177 436.788 514.996 435.608 513.552 435.608Z" fill="#D5DEE9"/>
<path d="M519.932 80V314.434C523.417 314.434 526.242 317.259 526.242 320.743C526.242 324.228 523.417 327.053 519.932 327.053C516.447 327.053 513.622 324.228 513.622 320.743" stroke="#231F20" stroke-miterlimit="10"/>
<path d="M731 120.5H680C672.268 120.5 666 114.232 666 106.5V93.5C666 85.768 672.268 79.5 680 79.5H731V120.5Z" fill="#D5DEE9"/>
<path d="M724 107H712V115H724V107Z" fill="#F3F7FC"/>
<path d="M89.9755 600H21.2468L4.61884 498.016H106.603L89.9755 600Z" fill="#D5DEE9"/>
<path d="M105.222 513.073H6C2.68628 513.073 0 510.387 0 507.073V494.685C0 491.372 2.68628 488.685 6 488.685H105.222C108.536 488.685 111.222 491.372 111.222 494.685V507.073C111.222 510.387 108.536 513.073 105.222 513.073Z" fill="#E2EAF4"/>
<path d="M56.1113 402.574C56.1113 383.874 40.8294 369.616 22.1294 369.616H8.42566C8.42566 387.818 23.1814 402.574 41.3835 402.574H56.1113Z" fill="#231F20"/>
<path d="M56.1113 402.574H55.1113V488.686H56.1113V402.574Z" fill="#231F20"/>
<path d="M800 599H0V600H800V599Z" fill="#231F20"/>
<path d="M763 545.5H637C631.762 545.5 627.5 541.238 627.5 536V529C627.5 523.762 631.762 519.5 637 519.5H763C768.238 519.5 772.5 523.762 772.5 529V536C772.5 541.238 768.238 545.5 763 545.5ZM637 520.5C632.313 520.5 628.5 524.313 628.5 529V536C628.5 540.687 632.313 544.5 637 544.5H763C767.687 544.5 771.5 540.687 771.5 536V529C771.5 524.313 767.687 520.5 763 520.5H637Z" fill="#D5DEE9"/>
<path d="M232.5 410.556V445.5H189.5V410.556H188.5V599.5H189.5V578.5H232.5V599.5H233.5V410.556H232.5ZM232.5 446.5V467.5H189.5V446.5H232.5ZM189.5 533.5V512.5H232.5V533.5H189.5ZM232.5 534.5V555.5H189.5V534.5H232.5ZM189.5 511.5V490.5H232.5V511.5H189.5ZM189.5 489.5V468.5H232.5V489.5H189.5ZM189.5 577.5V556.5H232.5V577.5H189.5Z" fill="#231F20"/>
<path d="M434.932 336.785L519.932 323.743L604.932 336.785" stroke="#231F20" stroke-miterlimit="10"/>
<path d="M524 309H516C515.45 309 515 308.55 515 308V289.185C515 288.635 515.45 288.185 516 288.185H524C524.55 288.185 525 288.635 525 289.185V308C525 308.55 524.55 309 524 309Z" fill="#231F20"/>
<path d="M26.6111 109V131C26.6111 140.9 34.7111 149 44.6111 149H66.6111C76.5111 149 84.6111 140.9 84.6111 131V109C84.6111 106.127 83.912 103.416 82.7019 101H28.5203C27.3101 103.416 26.6111 106.127 26.6111 109Z" fill="#E2EAF4"/>
<path d="M66.6111 91H44.6111C37.5839 91 31.4805 95.0908 28.5203 101H82.7019C79.7416 95.0908 73.6384 91 66.6111 91Z" fill="#D5DEE9"/>
<path d="M53.6135 136C53.489 136 53.3635 135.988 53.2371 135.965C52.1516 135.758 51.4397 134.711 51.6462 133.626L55.6462 112.626C55.8528 111.541 56.905 110.828 57.9851 111.035C59.0701 111.242 59.782 112.289 59.5759 113.374L55.5759 134.374C55.3933 135.333 54.5545 136 53.6135 136Z" fill="#262938"/>
<path d="M44.612 132C44.0485 132 43.488 131.763 43.0925 131.302L37.0925 124.302C36.3737 123.463 36.4709 122.2 37.3093 121.481C38.1491 120.762 39.4108 120.861 40.1296 121.698L46.1296 128.698C46.8483 129.537 46.7512 130.8 45.9128 131.519C45.5353 131.842 45.0725 132 44.612 132Z" fill="#262938"/>
<path d="M38.6101 125C38.1496 125 37.6867 124.842 37.3093 124.519C36.4709 123.8 36.3737 122.537 37.0925 121.698L43.0925 114.698C43.8112 113.86 45.0739 113.764 45.9128 114.481C46.7512 115.2 46.8483 116.463 46.1296 117.302L40.1296 124.302C39.7341 124.763 39.1735 125 38.6101 125Z" fill="#262938"/>
<path d="M66.61 132C66.1491 132 65.6862 131.842 65.3092 131.519C64.4704 130.8 64.3737 129.537 65.0925 128.698L71.0925 121.698C71.8112 120.861 73.0759 120.764 73.9128 121.481C74.7516 122.2 74.8483 123.463 74.1296 124.302L68.1296 131.302C67.7341 131.763 67.1735 132 66.61 132Z" fill="#262938"/>
<path d="M72.612 125C72.0485 125 71.488 124.763 71.0925 124.302L65.0925 117.302C64.3737 116.463 64.4704 115.2 65.3092 114.481C66.1462 113.762 67.4098 113.858 68.1296 114.698L74.1296 121.698C74.8483 122.537 74.7516 123.8 73.9128 124.519C73.5358 124.842 73.0729 125 72.612 125Z" fill="#262938"/>
<path d="M318.824 49.5C324.347 49.5 328.824 45.0228 328.824 39.5C328.824 33.9771 324.347 29.5 318.824 29.5C313.301 29.5 308.824 33.9771 308.824 39.5C308.824 45.0228 313.301 49.5 318.824 49.5Z" fill="#262938"/>
<path d="M347.824 40.95V38.05L343.363 37.3065C343.205 35.5191 342.869 33.7836 342.35 32.1263L346.171 29.7418L345.061 27.0625L340.659 28.082C339.836 26.5131 338.858 25.0412 337.73 23.6941L340.355 20.0191L338.305 17.9685L334.63 20.5935C333.283 19.4661 331.811 18.4875 330.242 17.6653L331.261 13.2624L328.582 12.1526L326.198 15.9741C324.54 15.4551 322.805 15.1187 321.017 14.9608L320.274 10.5H317.374L316.63 14.9608C314.843 15.1187 313.107 15.4551 311.45 15.9741L309.066 12.1526L306.386 13.2624L307.406 17.6653C305.837 18.4875 304.365 19.4661 303.018 20.5935L299.343 17.9685L297.292 20.0191L299.917 23.6941C298.79 25.0412 297.811 26.5131 296.989 28.082L292.586 27.0625L291.476 29.7418L295.298 32.1263C294.779 33.7836 294.443 35.5191 294.285 37.3065L289.824 38.05V40.95L294.285 41.6935C294.443 43.4808 294.779 45.2163 295.298 46.8737L291.476 49.2581L292.586 51.9375L296.989 50.9179C297.811 52.4868 298.79 53.9587 299.917 55.3059L297.292 58.9808L299.343 61.0313L303.018 58.4064C304.365 59.5338 305.837 60.5125 307.406 61.3346L306.386 65.7376L309.066 66.8474L311.45 63.0258C313.107 63.5448 314.843 63.8813 316.63 64.0392L317.374 68.5H320.274L321.017 64.0392C322.805 63.8813 324.54 63.5448 326.198 63.0258L328.582 66.8474L331.261 65.7376L330.242 61.3346C331.811 60.5125 333.283 59.5338 334.63 58.4064L338.305 61.0313L340.355 58.9808L337.73 55.3059C338.858 53.9587 339.836 52.4868 340.659 50.9179L345.061 51.9375L346.171 49.2581L342.35 46.8737C342.869 45.2163 343.205 43.4808 343.363 41.6935L347.824 40.95ZM318.824 57.5C308.883 57.5 300.824 49.4411 300.824 39.5C300.824 29.5589 308.883 21.5 318.824 21.5C328.765 21.5 336.824 29.5589 336.824 39.5C336.824 49.4411 328.765 57.5 318.824 57.5Z" fill="#BFCCE0"/>
<path d="M318.824 21.5V39.4896" stroke="#BFCCE0" stroke-width="4" stroke-miterlimit="10"/>
<path d="M303.235 48.5L318.842 39.4896" stroke="#BFCCE0" stroke-width="4" stroke-miterlimit="10"/>
<path d="M334.412 48.5L318.86 39.5208" stroke="#BFCCE0" stroke-width="4" stroke-miterlimit="10"/>
<path d="M800 80.5H487.487L559.237 39.5H800V80.5ZM491.253 79.5H799V40.5H559.503L491.253 79.5Z" fill="#BFCCE0"/>
<path d="M428.622 343.095C428.622 339.61 431.447 336.785 434.932 336.785C438.417 336.785 441.241 339.61 441.241 343.095" stroke="#BFCCE0" stroke-miterlimit="10"/>
<path d="M598.623 343.095C598.623 339.61 601.447 336.785 604.932 336.785C608.417 336.785 611.242 339.61 611.242 343.095" stroke="#BFCCE0" stroke-miterlimit="10"/>
<path d="M763.126 590H770.357C771.398 587.88 772 585.51 772 583V578H768.721L763.126 590Z" fill="white"/>
<path d="M628.056 584.092C628.2 586.198 628.755 588.192 629.643 590H633.041L638.637 578H630.896L628.056 584.092Z" fill="white"/>
<path d="M61.1113 376.574H60.1113V488.686H61.1113V376.574Z" fill="#231F20"/>
<path d="M60.1113 376.574C60.1113 368.107 67.031 361.651 75.4984 361.651H81.7035V361.651C81.7035 369.893 75.022 376.574 66.7801 376.574H60.1113Z" fill="#231F20"/>
<path d="M297.653 565H281.088L279.713 570H299.028L297.653 565Z" fill="#D5DEE9"/>
<path d="M293.808 551.014C293.331 549.277 291.752 548.074 289.951 548.074H288.789C286.989 548.074 285.41 549.277 284.933 551.014L283.287 557H295.454L293.808 551.014Z" fill="#D5DEE9"/>
<path d="M301.227 578H277.514L276.139 583H302.601L301.227 578Z" fill="#D5DEE9"/>
<path d="M306.175 596L304.801 591H273.94L272.565 596H265.37V599H271.741H307H313.37V596H306.175Z" fill="#D5DEE9"/>
<path d="M577.653 565H561.088L559.713 570H579.028L577.653 565Z" fill="#D5DEE9"/>
<path d="M573.808 551.014C573.331 549.277 571.752 548.074 569.951 548.074H568.79C566.989 548.074 565.41 549.277 564.933 551.014L563.287 557H575.454L573.808 551.014Z" fill="#D5DEE9"/>
<path d="M581.227 578H557.514L556.139 583H582.602L581.227 578Z" fill="#D5DEE9"/>
<path d="M586.175 596L584.801 591H553.94L552.566 596H545.37V599H551.741H587H593.37V596H586.175Z" fill="#D5DEE9"/>
<path d="M437.653 565H421.088L419.713 570H439.028L437.653 565Z" fill="#E2EAF4"/>
<path d="M433.808 551.014C433.331 549.277 431.752 548.074 429.951 548.074H428.789C426.989 548.074 425.41 549.277 424.933 551.014L423.287 557H435.454L433.808 551.014Z" fill="#E2EAF4"/>
<path d="M441.227 578H417.514L416.139 583H442.601L441.227 578Z" fill="#E2EAF4"/>
<path d="M446.175 596L444.801 591H413.94L412.565 596H405.37V599H411.741H447H453.37V596H446.175Z" fill="#E2EAF4"/>
<path d="M83.6115 232.529H47.6115V233.529H83.6115V232.529Z" fill="#D5DEE9"/>
<path d="M93.6115 242.529H57.6115V243.529H93.6115V242.529Z" fill="#D5DEE9"/>
<path d="M224 24.9948H188V25.9948H224V24.9948Z" fill="#D5DEE9"/>
<path d="M234 34.9948H198V35.9948H234V34.9948Z" fill="#D5DEE9"/>
</svg>
